# xmcd
#
# Track frame offsets: 
#        150
#        14770
#        31886
#        47813
#        63182
#        75777
#        93568
#        110309
#        124856
#
# Disc length: 1865 seconds
#
# Revision: 0
# Processed by: cddbd v1.5.2PL0 Copyright (c) Steve Scherf et al.
# Submitted via: ExactAudioCopy v0.95b4
#
DISCID=68074709
DTITLE=Doug Supernaw - Red and Rio Grande
DYEAR=1993
DGENRE=
TTITLE0=Honky Tonkin' Fool
TTITLE1=I Don't Call Him Daddy
TTITLE2=Reno
TTITLE3=The Perfect Picture (To Fit My Frame of Mind)
TTITLE4=Carousel
TTITLE5=Red and Rio Grande
TTITLE6=Five Generations of Rock County Wilsons
TTITLE7=You're Gonna Bring Back Cheatin' Songs
TTITLE8=Daddy's Girl
EXTD=
EXTT0=
EXTT1=
EXTT2=
EXTT3=
EXTT4=
EXTT5=
EXTT6=
EXTT7=
EXTT8=
PLAYORDER=
